<svg width="193" height="42" viewBox="0 0 193 42" fill="none" xmlns="http://www.w3.org/2000/svg">
<path d="M0 2H137L151.5 21.5L137 42H0V2Z" fill="#454545"/>
<path d="M12.0901 28.9816C12.8087 28.9816 13.4124 28.8954 13.9011 28.7229C14.3898 28.5504 14.7779 28.3204 15.0654 28.033C15.3624 27.7455 15.5732 27.4101 15.6978 27.0268C15.8319 26.6435 15.899 26.2363 15.899 25.8051C15.899 25.3547 15.8271 24.9523 15.6834 24.5977C15.5397 24.2336 15.3145 23.927 15.0079 23.6778C14.7012 23.4191 14.3036 23.2227 13.8149 23.0885C13.3358 22.9544 12.756 22.8873 12.0757 22.8873H8.18053V28.9816H12.0901ZM8.18053 14.2058V20.2139H11.2564C12.5788 20.2139 13.5753 19.9743 14.2461 19.4952C14.9264 19.0161 15.2666 18.2543 15.2666 17.2098C15.2666 16.127 14.96 15.3557 14.3467 14.8957C13.7334 14.4358 12.7752 14.2058 11.472 14.2058H8.18053ZM11.472 11.2162C12.8327 11.2162 13.9969 11.3455 14.9647 11.6042C15.9326 11.863 16.7231 12.2319 17.3363 12.711C17.9592 13.1901 18.4143 13.7698 18.7018 14.4502C18.9893 15.1305 19.133 15.8971 19.133 16.7499C19.133 17.2386 19.0611 17.7081 18.9174 18.1585C18.7737 18.5993 18.5485 19.0161 18.2419 19.409C17.9448 19.7922 17.5615 20.142 17.092 20.4582C16.6321 20.7744 16.0811 21.0427 15.4391 21.2631C18.2946 21.9051 19.7223 23.4479 19.7223 25.8913C19.7223 26.7729 19.5546 27.5874 19.2193 28.3348C18.8839 29.0822 18.3952 29.729 17.7532 30.2752C17.1112 30.8118 16.3206 31.2334 15.3816 31.5401C14.4425 31.8467 13.3693 32 12.1619 32H4.31411V11.2162H11.472ZM35.4095 28.8091V32H23.2353V11.2162H27.1017V28.8091H35.4095ZM54.5732 21.5793V29.9877C53.5191 30.7639 52.3932 31.334 51.1954 31.6982C50.0072 32.0527 48.7328 32.23 47.3721 32.23C45.6761 32.23 44.1381 31.9665 42.7583 31.4394C41.388 30.9124 40.2142 30.1794 39.2368 29.2403C38.269 28.3013 37.5216 27.1801 36.9946 25.877C36.4675 24.5738 36.204 23.1508 36.204 21.6081C36.204 20.0462 36.458 18.6136 36.9658 17.3105C37.4737 16.0073 38.1923 14.8862 39.1218 13.9471C40.0609 13.008 41.1964 12.2798 42.5283 11.7623C43.8602 11.2449 45.3551 10.9862 47.0128 10.9862C47.856 10.9862 48.6418 11.0533 49.37 11.1874C50.1078 11.3216 50.7882 11.5084 51.411 11.748C52.0435 11.9779 52.6184 12.2606 53.1358 12.596C53.6533 12.9314 54.1276 13.3003 54.5588 13.7027L53.452 15.4563C53.2796 15.7342 53.0544 15.9067 52.7765 15.9737C52.4986 16.0312 52.1968 15.9594 51.871 15.7581C51.5548 15.5761 51.2385 15.394 50.9223 15.2119C50.6061 15.0299 50.2516 14.8718 49.8587 14.7376C49.4754 14.6035 49.0394 14.4933 48.5507 14.407C48.0716 14.3208 47.5159 14.2777 46.8834 14.2777C45.8581 14.2777 44.9287 14.4502 44.095 14.7951C43.2709 15.1401 42.5666 15.6336 41.9821 16.2756C41.3976 16.9176 40.9472 17.689 40.631 18.5897C40.3148 19.4904 40.1567 20.4965 40.1567 21.6081C40.1567 22.7963 40.3244 23.8599 40.6598 24.799C41.0047 25.7284 41.4838 26.519 42.0971 27.1706C42.7199 27.8126 43.4674 28.3061 44.3393 28.651C45.2113 28.9864 46.1839 29.1541 47.2571 29.1541C48.0237 29.1541 48.7088 29.0726 49.3125 28.9097C49.9162 28.7468 50.5055 28.5264 51.0804 28.2486V24.4827H48.4645C48.2154 24.4827 48.0189 24.4157 47.8752 24.2815C47.741 24.1378 47.674 23.9653 47.674 23.7641V21.5793H54.5732ZM64.5795 21.105C65.3077 21.105 65.9401 21.014 66.4767 20.8319C67.0229 20.6499 67.4685 20.4007 67.8135 20.0845C68.168 19.7587 68.4315 19.3754 68.604 18.9346C68.7765 18.4939 68.8627 18.01 68.8627 17.4829C68.8627 16.4289 68.513 15.6192 67.8135 15.0538C67.1235 14.4885 66.0647 14.2058 64.637 14.2058H62.1647V21.105H64.5795ZM74.5258 32H71.0331C70.3719 32 69.8928 31.7413 69.5958 31.2238L65.2263 24.569C65.0634 24.3198 64.8813 24.1426 64.6801 24.0372C64.4884 23.9318 64.201 23.8791 63.8177 23.8791H62.1647V32H58.2983V11.2162H64.637C66.0455 11.2162 67.2529 11.3647 68.259 11.6617C69.2748 11.9492 70.1036 12.3564 70.7456 12.8835C71.3972 13.4105 71.8763 14.0429 72.183 14.7807C72.4896 15.509 72.6429 16.3139 72.6429 17.1955C72.6429 17.895 72.5375 18.5561 72.3267 19.179C72.1255 19.8018 71.8284 20.3672 71.4355 20.875C71.0523 21.3829 70.5731 21.8285 69.9982 22.2118C69.4329 22.595 68.7861 22.8969 68.0578 23.1173C68.307 23.261 68.5369 23.4335 68.7477 23.6347C68.9585 23.8264 69.1502 24.0563 69.3227 24.3246L74.5258 32ZM96.3104 21.6081C96.3104 23.1317 96.0565 24.545 95.5486 25.8482C95.0503 27.1418 94.3413 28.2629 93.4214 29.2116C92.5015 30.1602 91.3947 30.9028 90.1011 31.4394C88.8075 31.9665 87.3702 32.23 85.7891 32.23C84.2176 32.23 82.7851 31.9665 81.4915 31.4394C80.1979 30.9028 79.0864 30.1602 78.1569 29.2116C77.237 28.2629 76.5231 27.1418 76.0153 25.8482C75.5074 24.545 75.2535 23.1317 75.2535 21.6081C75.2535 20.0845 75.5074 18.6759 76.0153 17.3823C76.5231 16.0791 77.237 14.9532 78.1569 14.0046C79.0864 13.0559 80.1979 12.3181 81.4915 11.7911C82.7851 11.2545 84.2176 10.9862 85.7891 10.9862C86.8432 10.9862 87.8349 11.1108 88.7644 11.3599C89.6939 11.5994 90.5467 11.9444 91.3229 12.3948C92.099 12.8356 92.7937 13.377 93.407 14.019C94.0298 14.6514 94.5569 15.3605 94.9881 16.1462C95.4193 16.932 95.7451 17.7848 95.9654 18.7047C96.1954 19.6246 96.3104 20.5924 96.3104 21.6081ZM92.3577 21.6081C92.3577 20.4678 92.2044 19.4473 91.8978 18.5466C91.5912 17.6362 91.1552 16.8649 90.5898 16.2325C90.0245 15.6 89.3345 15.1161 88.5201 14.7807C87.7151 14.4454 86.8048 14.2777 85.7891 14.2777C84.7734 14.2777 83.8583 14.4454 83.0438 14.7807C82.2389 15.1161 81.549 15.6 80.9741 16.2325C80.4087 16.8649 79.9727 17.6362 79.6661 18.5466C79.3595 19.4473 79.2061 20.4678 79.2061 21.6081C79.2061 22.7484 79.3595 23.7737 79.6661 24.684C79.9727 25.5847 80.4087 26.3513 80.9741 26.9837C81.549 27.6066 82.2389 28.0857 83.0438 28.421C83.8583 28.7564 84.7734 28.9241 85.7891 28.9241C86.8048 28.9241 87.7151 28.7564 88.5201 28.421C89.3345 28.0857 90.0245 27.6066 90.5898 26.9837C91.1552 26.3513 91.5912 25.5847 91.8978 24.684C92.2044 23.7737 92.3577 22.7484 92.3577 21.6081ZM108.071 28.881C108.819 28.881 109.485 28.7564 110.069 28.5073C110.663 28.2581 111.161 27.9084 111.564 27.458C111.966 27.0077 112.273 26.4615 112.484 25.8195C112.704 25.1775 112.814 24.4588 112.814 23.6635V11.2162H116.681V23.6635C116.681 24.8996 116.48 26.0446 116.077 27.0987C115.684 28.1432 115.114 29.0487 114.367 29.8153C113.629 30.5722 112.728 31.1663 111.664 31.5975C110.601 32.0192 109.403 32.23 108.071 32.23C106.73 32.23 105.527 32.0192 104.463 31.5975C103.4 31.1663 102.494 30.5722 101.747 29.8153C101.009 29.0487 100.439 28.1432 100.036 27.0987C99.6436 26.0446 99.4472 24.8996 99.4472 23.6635V11.2162H103.314V23.6491C103.314 24.4444 103.419 25.1631 103.63 25.8051C103.85 26.4471 104.162 26.9981 104.564 27.458C104.976 27.9084 105.474 28.2581 106.059 28.5073C106.653 28.7564 107.324 28.881 108.071 28.881ZM127.797 21.6656C128.506 21.6656 129.124 21.5793 129.651 21.4069C130.178 21.2248 130.614 20.9709 130.959 20.6451C131.313 20.3097 131.577 19.9072 131.749 19.4377C131.922 18.9586 132.008 18.4268 132.008 17.8423C132.008 17.2865 131.922 16.7834 131.749 16.3331C131.577 15.8827 131.318 15.4994 130.973 15.1832C130.628 14.867 130.192 14.6274 129.665 14.4645C129.138 14.2921 128.515 14.2058 127.797 14.2058H124.908V21.6656H127.797ZM127.797 11.2162C129.186 11.2162 130.389 11.3791 131.404 11.7049C132.42 12.0306 133.259 12.4858 133.92 13.0703C134.581 13.6548 135.07 14.3543 135.386 15.1688C135.712 15.9833 135.875 16.8745 135.875 17.8423C135.875 18.8484 135.707 19.7731 135.372 20.6163C135.036 21.45 134.533 22.1686 133.862 22.7723C133.192 23.376 132.348 23.8455 131.333 24.1809C130.326 24.5163 129.148 24.684 127.797 24.684H124.908V32H121.041V11.2162H127.797Z" fill="white"/>
<rect x="152" y="2" width="41" height="40" fill="#FF6B0A"/>
<path d="M169.361 17.4542C169.361 19.5431 170.329 20.5876 172.265 20.5876C173.213 20.5876 173.942 20.3049 174.449 19.7395C174.967 19.1646 175.226 18.4028 175.226 17.4542C175.226 16.9463 175.149 16.5008 174.996 16.1175C174.852 15.7246 174.646 15.3988 174.378 15.1401C174.119 14.8814 173.803 14.6849 173.429 14.5508C173.055 14.4166 172.648 14.3495 172.207 14.3495C171.757 14.3495 171.354 14.431 171 14.5939C170.655 14.7472 170.358 14.9628 170.109 15.2407C169.869 15.5186 169.682 15.8492 169.548 16.2325C169.424 16.6062 169.361 17.0134 169.361 17.4542ZM172.926 24.0659C173.06 23.903 173.189 23.7449 173.314 23.5916C173.438 23.4383 173.553 23.285 173.659 23.1317C172.777 23.6012 171.776 23.8359 170.655 23.8359C169.975 23.8359 169.294 23.7162 168.614 23.4766C167.934 23.2275 167.315 22.8538 166.76 22.3555C166.213 21.8572 165.768 21.2296 165.423 20.4726C165.078 19.7156 164.906 18.8197 164.906 17.7848C164.906 16.8361 165.078 15.9402 165.423 15.097C165.778 14.2537 166.276 13.5159 166.918 12.8835C167.569 12.251 168.346 11.7528 169.246 11.3886C170.147 11.0149 171.153 10.8281 172.265 10.8281C173.395 10.8281 174.406 11.0006 175.297 11.3455C176.189 11.6905 176.941 12.1744 177.554 12.7972C178.177 13.4201 178.651 14.1627 178.977 15.0251C179.312 15.8779 179.48 16.8218 179.48 17.8566C179.48 19.2269 179.274 20.4534 178.862 21.5362C178.45 22.619 177.899 23.6395 177.209 24.5977L172.696 31.0082C172.495 31.2861 172.188 31.5209 171.776 31.7125C171.374 31.9042 170.914 32 170.396 32H166.285L172.926 24.0659Z" fill="white"/>
</svg>
